<?xml version="1.0" encoding="iso-8859-1"?>
<!-- Generator: Adobe Illustrator 19.1.0, SVG Export Plug-In . SVG Version: 6.00 Build 0)  -->
<svg version="1.1" id="Capa_1" xmlns="http://www.w3.org/2000/svg" xmlns:xlink="http://www.w3.org/1999/xlink" x="0px" y="0px"
	 viewBox="0 0 512 512" style="enable-background:new 0 0 512 512;" xml:space="preserve">
<g>
	<g>
		<g>
			<path style="fill:#FF9600;" d="M64,320c-35.289,0-64-28.711-64-64c0-22.773,12.258-44.016,31.992-55.43
				c7.625-4.43,17.422-1.812,21.859,5.844c4.422,7.648,1.812,17.43-5.844,21.859C38.133,233.984,32,244.609,32,256
				c0,17.648,14.352,32,32,32c8.836,0,16,7.164,16,16S72.836,320,64,320z"/>
		</g>
	</g>
	<g>
		<path style="fill:#FFD200;" d="M488,288h-12.32c-7.914-29.134-26.232-54.971-51.68-75.73V152c0-4.422-3.578-8-8-8
			c-22.574,0-42.768,13.7-51.464,34.301C334.41,166.64,300.232,160,264,160c-119.102,0-216,71.773-216,160v88
			c0,19.32,13.766,35.477,32,39.195V488c0,13.234,10.766,24,24,24h32c13.234,0,24-10.766,24-24v-40h176v40c0,13.234,10.766,24,24,24
			h32c13.234,0,24-10.766,24-24v-40h24c22.055,0,40-17.945,40-40v-16h8c13.234,0,24-10.766,24-24v-56
			C512,298.765,501.234,288,488,288z"/>
	</g>
	<g>
		<path style="fill:#DF8328;" d="M80,472v16c0,13.234,10.766,24,24,24h32c13.234,0,24-10.766,24-24v-16H80z"/>
	</g>
	<g>
		<path style="fill:#DF8328;" d="M336,472v16c0,13.234,10.766,24,24,24h32c13.234,0,24-10.766,24-24v-16H336z"/>
	</g>
	<g>
		<circle style="fill:#DF8328;" cx="416" cy="288" r="16"/>
	</g>
	<g>
		<g>
			<path style="fill:#FF9600;" d="M479.123,416h0.068c0.074-0.363,0.049-0.756,0.113-1.123
				C479.236,415.249,479.199,415.63,479.123,416z"/>
		</g>
		<g>
			<path style="fill:#FF9600;" d="M488,288h-12.32c-0.155-0.572-0.398-1.115-0.562-1.685C478.284,297.181,480,308.442,480,320v72h8
				c13.234,0,24-10.766,24-24v-56C512,298.765,501.234,288,488,288z"/>
		</g>
		<g>
			<path style="fill:#FF9600;" d="M468.312,268.224c-0.643-1.41-1.254-2.833-1.947-4.224h-0.049
				C467.021,265.394,467.658,266.812,468.312,268.224z"/>
		</g>
		<g>
			<path style="fill:#FF9600;" d="M469.642,271.105c0.792,1.823,1.537,3.662,2.242,5.513
				C471.188,274.761,470.424,272.932,469.642,271.105z"/>
		</g>
	</g>
	<g>
		<g>
			<circle style="fill:#FF9600;" cx="264" cy="72" r="72"/>
		</g>
		<g>
			<path style="fill:#FFD200;" d="M264,0c-19.882,0-37.882,8.059-50.912,21.088l101.823,101.823C327.941,109.882,336,91.882,336,72
				C336,32.235,303.764,0,264,0z"/>
		</g>
		<g>
			<circle style="fill:#FFFFFF;" cx="264" cy="72" r="56"/>
		</g>
		<g>
			<path style="fill:#FFD200;" d="M224.402,32.402C214.268,42.536,208,56.536,208,72c0,30.928,25.072,56,56,56
				c15.464,0,29.464-6.269,39.598-16.402L224.402,32.402z"/>
		</g>
		<g>
			<circle style="fill:#FFD200;" cx="264" cy="72" r="40"/>
		</g>
		<g>
			<path style="fill:#FF9600;" d="M264,112c11.046,0,21.045-4.477,28.284-11.716l-56.568-56.568C228.477,50.955,224,60.954,224,72
				C224,94.091,241.909,112,264,112z"/>
		</g>
		<g>
			<circle style="fill:#FFFFFF;" cx="288" cy="48" r="16"/>
		</g>
	</g>
	<g>
		<g>
			<path style="fill:#DF8328;" d="M192,219c-3.398,0-6.547-2.18-7.625-5.586c-1.336-4.211,1-8.711,5.211-10.039
				C213.437,195.828,238.476,192,264,192c25.18,0,50.891,3.844,74.367,11.125c4.219,1.305,6.586,5.789,5.273,10.008
				c-1.305,4.211-5.773,6.57-10.008,5.273C311.672,211.601,287.594,208,264,208c-23.883,0-47.297,3.578-69.586,10.625
				C193.609,218.883,192.797,219,192,219z"/>
		</g>
	</g>
</g>
<g>
</g>
<g>
</g>
<g>
</g>
<g>
</g>
<g>
</g>
<g>
</g>
<g>
</g>
<g>
</g>
<g>
</g>
<g>
</g>
<g>
</g>
<g>
</g>
<g>
</g>
<g>
</g>
<g>
</g>
</svg>
