<?xml version="1.0" encoding="iso-8859-1"?>
<!-- Generator: Adobe Illustrator 19.1.0, SVG Export Plug-In . SVG Version: 6.00 Build 0)  -->
<svg version="1.1" id="Capa_1" xmlns="http://www.w3.org/2000/svg" xmlns:xlink="http://www.w3.org/1999/xlink" x="0px" y="0px"
	 viewBox="0 0 512 512" style="enable-background:new 0 0 512 512;" xml:space="preserve">
<g>
	<g>
		<path style="fill:#8B8996;" d="M488,208h-21.391c-5.398-23.852-14.711-46.332-27.734-66.992l15.117-15.117
			c9.352-9.355,9.352-24.582,0-33.937l-33.945-33.941c-9.062-9.07-24.875-9.07-33.937,0l-15.117,15.113
			C350.328,60.098,327.844,50.789,304,45.391V24c0-13.234-10.766-24-24-24h-48c-13.234,0-24,10.766-24,24v21.391
			c-23.844,5.398-46.328,14.707-66.992,27.734l-15.117-15.113c-9.062-9.07-24.875-9.07-33.937,0L58.008,91.953
			c-9.352,9.355-9.352,24.582,0,33.937l15.125,15.121C60.094,161.68,50.789,184.16,45.391,208H24c-13.234,0-24,10.766-24,24v48
			c0,13.234,10.766,24,24,24h21.391c5.398,23.84,14.703,46.32,27.742,66.988l-15.125,15.121c-9.352,9.355-9.352,24.582,0,33.937
			l33.945,33.941c9.062,9.07,24.875,9.07,33.937,0l15.117-15.113c20.664,13.027,43.148,22.336,66.992,27.734V488
			c0,13.234,10.766,24,24,24h48c13.234,0,24-10.766,24-24v-21.391c23.844-5.398,46.328-14.707,66.992-27.734l15.117,15.113
			c9.062,9.07,24.875,9.07,33.937,0l33.945-33.941c9.352-9.355,9.352-24.582,0-33.937l-15.117-15.117
			c13.023-20.66,22.336-43.141,27.734-66.992H488c13.234,0,24-10.766,24-24v-48C512,218.766,501.234,208,488,208z M256,376
			c-66.166,0-120-53.83-120-120s53.834-120,120-120s120,53.83,120,120S322.166,376,256,376z"/>
	</g>
	<g>
		<path style="fill:#B9BBC1;" d="M488,208h-21.391c-5.398-23.852-14.711-46.332-27.734-66.992l15.117-15.117
			c9.352-9.355,9.352-24.582,0-33.937l-33.945-33.941c-9.062-9.07-24.875-9.07-33.937,0l-15.117,15.113
			C350.328,60.098,327.844,50.789,304,45.391V24c0-13.234-10.766-24-24-24h-24v136c66.166,0,120,53.83,120,120s-53.834,120-120,120
			v136h24c13.234,0,24-10.766,24-24v-21.391c23.844-5.398,46.328-14.707,66.992-27.734l15.117,15.113
			c9.062,9.07,24.875,9.07,33.937,0l33.945-33.941c9.352-9.355,9.352-24.582,0-33.937l-15.117-15.117
			c13.023-20.66,22.336-43.141,27.734-66.992H488c13.234,0,24-10.766,24-24v-48C512,218.766,501.234,208,488,208z"/>
	</g>
	<g>
		<path style="fill:#5C546A;" d="M408,256c0-83.947-68.053-152-152-152s-152,68.053-152,152s68.053,152,152,152S408,339.947,408,256
			z M136,256c0-66.17,53.834-120,120-120s120,53.83,120,120s-53.834,120-120,120S136,322.17,136,256z"/>
	</g>
</g>
<g>
</g>
<g>
</g>
<g>
</g>
<g>
</g>
<g>
</g>
<g>
</g>
<g>
</g>
<g>
</g>
<g>
</g>
<g>
</g>
<g>
</g>
<g>
</g>
<g>
</g>
<g>
</g>
<g>
</g>
</svg>
