<?xml version="1.0" encoding="iso-8859-1"?>
<!-- Generator: Adobe Illustrator 19.1.0, SVG Export Plug-In . SVG Version: 6.00 Build 0)  -->
<svg version="1.1" id="Capa_1" xmlns="http://www.w3.org/2000/svg" xmlns:xlink="http://www.w3.org/1999/xlink" x="0px" y="0px"
	 viewBox="0 0 512 512" style="enable-background:new 0 0 512 512;" xml:space="preserve">
<g>
	<g>
		<path style="fill:#D8DCE1;" d="M184,408v32c0,19.555,14.102,35.875,32.672,39.328C220.125,497.894,236.445,512,256,512
			s35.875-14.105,39.328-32.672C313.898,475.875,328,459.554,328,440v-32H184z"/>
	</g>
	<g>
		<path style="fill:#B9BBC1;" d="M184,408v32c0,19.555,14.102,35.875,32.672,39.328C220.125,497.894,236.445,512,256,512V408H184z"
			/>
	</g>
	<g>
		<path style="fill:#8B8996;" d="M216.859,480c3.726,18.224,19.83,32,39.141,32s35.415-13.776,39.141-32H216.859z"/>
	</g>
	<g>
		<path style="fill:#FFD200;" d="M456,200C456,89.719,366.281,0,256,0S56,89.719,56,200c0,82.543,51.924,157.148,128,186.601V408
			h144v-21.396C404.078,357.153,456,282.549,456,200z"/>
	</g>
	<g>
		<path style="fill:#FFEF43;" d="M328,408v-21.396C404.078,357.153,456,282.549,456,200C456,89.719,366.281,0,256,0v408H328z"/>
	</g>
	<g>
		<circle style="fill:#FFFFFF;" cx="300" cy="148" r="60"/>
	</g>
	<g>
		<path style="fill:#FF4F19;" d="M327.001,184h-66.144l10.979-88.808c1.28-8.448-1.67-9.625-6.556-2.615l-78.932,110.678
			c-4.886,7.01-1.892,12.746,6.652,12.746h57.67l-11.842,104.809c-1.28,8.448,1.67,9.624,6.556,2.614l88.27-126.679
			C338.539,189.735,335.545,184,327.001,184z"/>
	</g>
</g>
<g>
</g>
<g>
</g>
<g>
</g>
<g>
</g>
<g>
</g>
<g>
</g>
<g>
</g>
<g>
</g>
<g>
</g>
<g>
</g>
<g>
</g>
<g>
</g>
<g>
</g>
<g>
</g>
<g>
</g>
</svg>
